# Blender v2.83.1 OBJ File: 'Greenate GMOD.blend'
# www.blender.org
mtllib Greenate Right Shoe.mtl
o Greenate_Character
v 0.000000 -0.497148 0.009217
v -0.097545 -0.487541 0.009217
v -0.191342 -0.459088 0.009217
v -0.277785 -0.412883 0.009217
v -0.353553 -0.350702 0.009217
v -0.415735 -0.274933 0.009217
v -0.461940 -0.188490 0.009217
v -0.490393 -0.094693 0.009217
v -0.490393 0.002852 0.106762
v -0.461940 0.002852 0.200559
v -0.415735 0.002852 0.287002
v -0.353553 0.002852 0.362770
v -0.277785 0.002852 0.424952
v -0.191342 0.002852 0.471157
v -0.097545 0.002852 0.499610
v -0.500000 0.002852 0.009217
v -0.480970 0.098523 0.106762
v -0.453064 0.092972 0.200559
v -0.407747 0.083958 0.287002
v -0.346760 0.071827 0.362770
v -0.272448 0.057045 0.424952
v -0.187665 0.040181 0.471157
v -0.095671 0.021882 0.499610
v -0.490393 0.100397 0.009217
v -0.453064 0.190517 0.106762
v -0.426777 0.179628 0.200559
v -0.384089 0.161947 0.287002
v -0.326641 0.138151 0.362770
v -0.256640 0.109156 0.424952
v -0.176777 0.076075 0.471157
v -0.090120 0.040181 0.499610
v -0.461940 0.194194 0.009217
v -0.407746 0.275299 0.106762
v -0.384089 0.259492 0.200559
v -0.345671 0.233822 0.287002
v -0.293969 0.199276 0.362770
v -0.230970 0.157181 0.424952
v -0.159095 0.109156 0.471157
v -0.081106 0.057045 0.499610
v -0.415735 0.280637 0.009217
v -0.346760 0.349612 0.106762
v -0.326641 0.329493 0.200559
v -0.293969 0.296821 0.287002
v -0.250000 0.252852 0.362770
v -0.196424 0.199276 0.424952
v -0.135299 0.138151 0.471157
v -0.068975 0.071827 0.499610
v -0.353553 0.356405 0.009217
v -0.272447 0.410598 0.106762
v -0.256640 0.386941 0.200559
v -0.230970 0.348523 0.287002
v -0.196424 0.296821 0.362770
v -0.154329 0.233822 0.424952
v -0.106304 0.161947 0.471157
v -0.054193 0.083958 0.499610
v -0.277785 0.418587 0.009217
v -0.187665 0.455915 0.106762
v -0.176777 0.429628 0.200559
v -0.159095 0.386941 0.287002
v -0.135299 0.329493 0.362770
v -0.106304 0.259492 0.424952
v -0.073223 0.179629 0.471157
v -0.037329 0.092972 0.499610
v -0.191342 0.464792 0.009217
v -0.095671 0.483822 0.106762
v -0.090120 0.455916 0.200559
v -0.081106 0.410598 0.287002
v -0.068975 0.349612 0.362770
v -0.054193 0.275299 0.424952
v -0.037329 0.190517 0.471157
v -0.019030 0.098523 0.499610
v -0.097545 0.493244 0.009217
v 0.000000 0.493244 0.106762
v 0.000000 0.464792 0.200559
v 0.000000 0.418586 0.287002
v 0.000000 0.356405 0.362770
v 0.000000 0.280637 0.424952
v 0.000000 0.194194 0.471157
v 0.000000 0.100397 0.499610
v 0.000000 0.502852 0.009217
v 0.095671 0.483821 0.106762
v 0.090120 0.455916 0.200559
v 0.081106 0.410598 0.287002
v 0.068975 0.349612 0.362770
v 0.054193 0.275299 0.424952
v 0.037329 0.190517 0.471157
v 0.019030 0.098523 0.499610
v 0.097545 0.493244 0.009217
v 0.187665 0.455915 0.106762
v 0.176777 0.429628 0.200559
v 0.159095 0.386941 0.287002
v 0.135299 0.329492 0.362770
v 0.106304 0.259492 0.424952
v 0.073223 0.179628 0.471157
v 0.037329 0.092972 0.499610
v 0.191342 0.464792 0.009217
v 0.272448 0.410598 0.106762
v 0.256640 0.386941 0.200559
v 0.230970 0.348522 0.287002
v 0.196424 0.296821 0.362770
v 0.154329 0.233822 0.424952
v 0.106304 0.161947 0.471157
v 0.054193 0.083958 0.499610
v 0.000000 0.002852 0.509217
v 0.277785 0.418587 0.009217
v 0.346760 0.349612 0.106762
v 0.326641 0.329492 0.200559
v 0.293969 0.296820 0.287002
v 0.250000 0.252852 0.362770
v 0.196424 0.199276 0.424952
v 0.135299 0.138151 0.471157
v 0.068975 0.071827 0.499610
v 0.353554 0.356405 0.009217
v 0.407747 0.275299 0.106762
v 0.384089 0.259492 0.200559
v 0.345671 0.233822 0.287002
v 0.293969 0.199275 0.362770
v 0.230970 0.157181 0.424952
v 0.159095 0.109156 0.471157
v 0.081106 0.057045 0.499610
v 0.415735 0.280637 0.009217
v 0.453064 0.190517 0.106762
v 0.426777 0.179628 0.200559
v 0.384089 0.161946 0.287002
v 0.326641 0.138151 0.362770
v 0.256640 0.109156 0.424952
v 0.176777 0.076075 0.471157
v 0.090120 0.040181 0.499610
v 0.461940 0.194193 0.009217
v 0.480970 0.098522 0.106762
v 0.453064 0.092972 0.200559
v 0.407747 0.083957 0.287002
v 0.346760 0.071827 0.362770
v 0.272448 0.057045 0.424952
v 0.187665 0.040181 0.471157
v 0.095671 0.021882 0.499610
v 0.490393 0.100397 0.009217
v 0.490392 0.002852 0.106762
v 0.461940 0.002852 0.200559
v 0.415735 0.002852 0.287002
v 0.353553 0.002852 0.362770
v 0.277785 0.002852 0.424952
v 0.191342 0.002852 0.471157
v 0.097545 0.002852 0.499610
v 0.500000 0.002852 0.009217
v 0.490393 -0.094693 0.009217
v 0.461940 -0.188490 0.009217
v -0.500000 0.002852 0.009217
v 0.415735 -0.274933 0.009217
v 0.353553 -0.350702 0.009217
v 0.277785 -0.412883 0.009217
v 0.191342 -0.459088 0.009217
v 0.097545 -0.487541 0.009217
vt 0.065533 0.450004
vt 0.063725 0.453937
vt 0.063826 0.456216
vt 0.065546 0.455035
vt 0.071120 0.466817
vt 0.069594 0.456280
vt 0.068758 0.463828
vt 0.069828 0.472569
vt 0.067605 0.450424
vt 0.067272 0.457624
vt 0.062270 0.460023
vt 0.071417 0.503998
vt 0.072000 0.493122
vt 0.070544 0.492147
vt 0.070330 0.500744
vt 0.071939 0.479946
vt 0.070414 0.482443
vt 0.063861 0.458453
vt 0.069417 0.491964
vt 0.069333 0.498865
vt 0.069266 0.484434
vt 0.066876 0.463275
vt 0.068018 0.469333
vt 0.068813 0.476672
vt 0.065446 0.459432
vt 0.063838 0.460577
vt 0.065269 0.463224
vt 0.067364 0.473535
vt 0.067986 0.479813
vt 0.066460 0.467784
vt 0.068513 0.492168
vt 0.068497 0.497764
vt 0.068356 0.486129
vt 0.067775 0.492619
vt 0.067810 0.497195
vt 0.067611 0.487656
vt 0.066041 0.471456
vt 0.066779 0.476886
vt 0.067290 0.482367
vt 0.063768 0.462541
vt 0.065041 0.466482
vt 0.066248 0.479676
vt 0.066689 0.484572
vt 0.064777 0.469280
vt 0.065626 0.474516
vt 0.063657 0.464320
vt 0.067162 0.493291
vt 0.067243 0.497078
vt 0.066984 0.489120
vt 0.065216 0.477129
vt 0.065757 0.482101
vt 0.066156 0.486587
vt 0.066444 0.490611
vt 0.063512 0.465900
vt 0.064486 0.471688
vt 0.066642 0.494205
vt 0.066769 0.497393
vt 0.064173 0.473763
vt 0.064806 0.479412
vt 0.063339 0.467272
vt 0.066190 0.495395
vt 0.066364 0.498142
vt 0.065963 0.492206
vt 0.065292 0.484297
vt 0.065669 0.488530
vt 0.064390 0.481449
vt 0.064839 0.486363
vt 0.065211 0.490488
vt 0.065524 0.493973
vt 0.063142 0.468427
vt 0.063837 0.475547
vt 0.065785 0.496904
vt 0.066010 0.499353
vt 0.063479 0.477062
vt 0.063960 0.483295
vt 0.062922 0.469358
vt 0.065410 0.498775
vt 0.065697 0.501041
vt 0.065107 0.495975
vt 0.064384 0.488369
vt 0.064763 0.492533
vt 0.064307 0.494728
vt 0.064689 0.498250
vt 0.062684 0.470050
vt 0.063095 0.478315
vt 0.063911 0.490366
vt 0.063506 0.484980
vt 0.065058 0.501091
vt 0.065414 0.503246
vt 0.062430 0.470485
vt 0.064708 0.503900
vt 0.065150 0.506064
vt 0.064255 0.500928
vt 0.063015 0.486509
vt 0.063403 0.492388
vt 0.063822 0.497138
vt 0.062682 0.479288
vt 0.063289 0.499815
vt 0.063794 0.504077
vt 0.062162 0.470637
vt 0.062234 0.479940
vt 0.062839 0.494447
vt 0.062473 0.487854
vt 0.064331 0.507343
vt 0.064886 0.509637
vt 0.061885 0.470475
vt 0.063914 0.511611
vt 0.064613 0.514110
vt 0.063270 0.507798
vt 0.061863 0.488948
vt 0.062191 0.496526
vt 0.062675 0.502821
vt 0.061748 0.480200
vt 0.061605 0.469964
vt 0.061223 0.479956
vt 0.061421 0.498563
vt 0.061931 0.506233
vt 0.061164 0.489662
vt 0.063453 0.516875
vt 0.064330 0.519662
vt 0.062633 0.512355
vt 0.062919 0.523551
vt 0.064043 0.526577
vt 0.061842 0.518036
vt 0.060376 0.489784
vt 0.060483 0.500384
vt 0.060991 0.510105
vt 0.061330 0.469060
vt 0.060663 0.479063
vt 0.061074 0.467759
vt 0.060079 0.477333
vt 0.059302 0.501636
vt 0.059735 0.514420
vt 0.059449 0.488901
vt 0.062345 0.532162
vt 0.063840 0.534787
vt 0.060766 0.525644
vt 0.069046 0.548407
vt 0.070525 0.542400
vt 0.069828 0.545913
vt 0.071110 0.538003
vt 0.068210 0.549786
vt 0.071562 0.532891
vt 0.067352 0.549996
vt 0.071863 0.527260
vt 0.066505 0.549031
vt 0.072000 0.521327
vt 0.065700 0.546927
vt 0.071970 0.515319
vt 0.064970 0.543764
vt 0.064342 0.539665
vt 0.071773 0.509468
vn -0.3876 0.0381 0.9210
vn -0.2009 0.0198 0.9794
vn -0.1971 0.0392 0.9796
vn -0.3804 0.0757 0.9217
vn -0.8305 0.0818 0.5509
vn -0.7084 0.0698 0.7023
vn -0.6965 0.1385 0.7040
vn -0.8173 0.1626 0.5528
vn -0.5589 0.0550 0.8274
vn -0.5490 0.1092 0.8286
vn 0.0000 0.0630 0.9980
vn -0.4462 0.0439 0.8938
vn -0.9764 0.0962 0.1930
vn -0.9622 0.1914 0.1939
vn -0.6761 0.1345 0.7244
vn -0.9209 0.0907 0.3789
vn -0.9070 0.1804 0.3805
vn -0.1856 0.0769 0.9796
vn -0.9063 0.3754 0.1939
vn -0.6369 0.2638 0.7244
vn -0.8544 0.3539 0.3805
vn -0.5171 0.2142 0.8286
vn -0.6561 0.2717 0.7040
vn -0.7699 0.3189 0.5528
vn -0.3583 0.1484 0.9217
vn -0.1671 0.1116 0.9796
vn -0.3225 0.2155 0.9217
vn -0.5904 0.3945 0.7040
vn -0.6929 0.4630 0.5528
vn -0.4654 0.3110 0.8286
vn -0.8157 0.5450 0.1939
vn -0.5732 0.3830 0.7244
vn -0.7689 0.5137 0.3805
vn -0.6937 0.6937 0.1939
vn -0.4874 0.4874 0.7244
vn -0.6539 0.6539 0.3805
vn -0.3958 0.3958 0.8286
vn -0.5021 0.5021 0.7040
vn -0.5893 0.5893 0.5528
vn -0.1421 0.1421 0.9796
vn -0.2743 0.2743 0.9217
vn -0.3945 0.5904 0.7040
vn -0.4630 0.6929 0.5528
vn -0.2155 0.3225 0.9217
vn -0.3110 0.4654 0.8286
vn -0.1116 0.1671 0.9796
vn -0.5450 0.8157 0.1939
vn -0.3830 0.5732 0.7244
vn -0.5137 0.7689 0.3805
vn -0.2142 0.5171 0.8286
vn -0.2717 0.6561 0.7040
vn -0.3189 0.7699 0.5528
vn -0.3539 0.8544 0.3805
vn -0.0769 0.1856 0.9796
vn -0.1484 0.3583 0.9217
vn -0.3754 0.9063 0.1939
vn -0.2638 0.6369 0.7244
vn -0.0757 0.3804 0.9217
vn -0.1092 0.5490 0.8286
vn -0.0392 0.1971 0.9796
vn -0.1914 0.9622 0.1939
vn -0.1345 0.6761 0.7244
vn -0.1804 0.9070 0.3805
vn -0.1385 0.6965 0.7040
vn -0.1626 0.8173 0.5528
vn 0.0000 0.5598 0.8286
vn 0.0000 0.7101 0.7040
vn 0.0000 0.8333 0.5528
vn 0.0000 0.9247 0.3805
vn 0.0000 0.2010 0.9796
vn 0.0000 0.3879 0.9217
vn 0.0000 0.9810 0.1939
vn 0.0000 0.6894 0.7244
vn 0.0757 0.3804 0.9217
vn 0.1092 0.5490 0.8286
vn 0.0392 0.1971 0.9796
vn 0.1914 0.9622 0.1939
vn 0.1345 0.6761 0.7244
vn 0.1804 0.9070 0.3805
vn 0.1385 0.6965 0.7040
vn 0.1626 0.8173 0.5528
vn 0.3189 0.7699 0.5528
vn 0.3539 0.8544 0.3805
vn 0.0769 0.1856 0.9796
vn 0.1484 0.3583 0.9217
vn 0.2717 0.6561 0.7040
vn 0.2142 0.5171 0.8286
vn 0.3754 0.9063 0.1939
vn 0.2638 0.6369 0.7244
vn 0.1116 0.1671 0.9796
vn 0.5450 0.8157 0.1939
vn 0.3830 0.5732 0.7244
vn 0.5137 0.7689 0.3805
vn 0.3110 0.4654 0.8286
vn 0.3945 0.5904 0.7040
vn 0.4630 0.6929 0.5528
vn 0.2155 0.3225 0.9217
vn 0.5893 0.5893 0.5528
vn 0.6539 0.6539 0.3805
vn 0.1421 0.1421 0.9796
vn 0.2743 0.2743 0.9217
vn 0.5021 0.5021 0.7040
vn 0.3958 0.3958 0.8286
vn 0.6937 0.6937 0.1939
vn 0.4874 0.4874 0.7244
vn 0.1671 0.1116 0.9796
vn 0.8157 0.5450 0.1939
vn 0.5732 0.3830 0.7244
vn 0.7689 0.5137 0.3805
vn 0.4654 0.3110 0.8286
vn 0.5904 0.3945 0.7040
vn 0.6929 0.4630 0.5528
vn 0.3225 0.2155 0.9217
vn 0.1856 0.0769 0.9796
vn 0.3583 0.1484 0.9217
vn 0.6561 0.2717 0.7040
vn 0.7699 0.3189 0.5528
vn 0.5171 0.2142 0.8286
vn 0.9063 0.3754 0.1939
vn 0.6369 0.2638 0.7244
vn 0.8544 0.3539 0.3805
vn 0.9622 0.1914 0.1939
vn 0.6761 0.1345 0.7244
vn 0.9070 0.1804 0.3805
vn 0.5490 0.1092 0.8286
vn 0.6965 0.1385 0.7040
vn 0.8173 0.1626 0.5528
vn 0.1971 0.0392 0.9796
vn 0.3804 0.0757 0.9217
vn 0.2009 0.0198 0.9794
vn 0.3876 0.0381 0.9210
vn 0.7084 0.0698 0.7023
vn 0.8305 0.0818 0.5509
vn 0.5589 0.0550 0.8274
vn 0.9764 0.0962 0.1930
vn 0.4462 0.0439 0.8938
vn 0.9209 0.0907 0.3789
vn 0.0000 0.0000 1.0000
usemtl Colors
s 1
f 14/1/1 15/2/2 23/3/3 22/4/4
f 11/5/5 12/6/6 20/7/7 19/8/8
f 13/9/9 14/1/1 22/4/4 21/10/10
f 15/2/2 104/11/11 23/3/3
f 16/12/12 9/13/13 17/14/14 24/15/15
f 9/13/13 10/16/16 18/17/17 17/14/14
f 12/6/6 13/9/9 21/10/10 20/7/7
f 10/16/16 11/5/5 19/8/8 18/17/17
f 23/3/3 104/11/11 31/18/18
f 24/15/15 17/14/14 25/19/19 32/20/20
f 17/14/14 18/17/17 26/21/21 25/19/19
f 20/7/7 21/10/10 29/22/22 28/23/23
f 18/17/17 19/8/8 27/24/24 26/21/21
f 22/4/4 23/3/3 31/18/18 30/25/25
f 19/8/8 20/7/7 28/23/23 27/24/24
f 21/10/10 22/4/4 30/25/25 29/22/22
f 30/25/25 31/18/18 39/26/26 38/27/27
f 27/24/24 28/23/23 36/28/28 35/29/29
f 29/22/22 30/25/25 38/27/27 37/30/30
f 31/18/18 104/11/11 39/26/26
f 32/20/20 25/19/19 33/31/31 40/32/32
f 25/19/19 26/21/21 34/33/33 33/31/31
f 28/23/23 29/22/22 37/30/30 36/28/28
f 26/21/21 27/24/24 35/29/29 34/33/33
f 40/32/32 33/31/31 41/34/34 48/35/35
f 33/31/31 34/33/33 42/36/36 41/34/34
f 36/28/28 37/30/30 45/37/37 44/38/38
f 34/33/33 35/29/29 43/39/39 42/36/36
f 38/27/27 39/26/26 47/40/40 46/41/41
f 35/29/29 36/28/28 44/38/38 43/39/39
f 37/30/30 38/27/27 46/41/41 45/37/37
f 39/26/26 104/11/11 47/40/40
f 43/39/39 44/38/38 52/42/42 51/43/43
f 45/37/37 46/41/41 54/44/44 53/45/45
f 47/40/40 104/11/11 55/46/46
f 48/35/35 41/34/34 49/47/47 56/48/48
f 41/34/34 42/36/36 50/49/49 49/47/47
f 44/38/38 45/37/37 53/45/45 52/42/42
f 42/36/36 43/39/39 51/43/43 50/49/49
f 46/41/41 47/40/40 55/46/46 54/44/44
f 52/42/42 53/45/45 61/50/50 60/51/51
f 50/49/49 51/43/43 59/52/52 58/53/53
f 54/44/44 55/46/46 63/54/54 62/55/55
f 51/43/43 52/42/42 60/51/51 59/52/52
f 53/45/45 54/44/44 62/55/55 61/50/50
f 55/46/46 104/11/11 63/54/54
f 56/48/48 49/47/47 57/56/56 64/57/57
f 49/47/47 50/49/49 58/53/53 57/56/56
f 61/50/50 62/55/55 70/58/58 69/59/59
f 63/54/54 104/11/11 71/60/60
f 64/57/57 57/56/56 65/61/61 72/62/62
f 57/56/56 58/53/53 66/63/63 65/61/61
f 60/51/51 61/50/50 69/59/59 68/64/64
f 58/53/53 59/52/52 67/65/65 66/63/63
f 62/55/55 63/54/54 71/60/60 70/58/58
f 59/52/52 60/51/51 68/64/64 67/65/65
f 68/64/64 69/59/59 77/66/66 76/67/67
f 66/63/63 67/65/65 75/68/68 74/69/69
f 70/58/58 71/60/60 79/70/70 78/71/71
f 67/65/65 68/64/64 76/67/67 75/68/68
f 69/59/59 70/58/58 78/71/71 77/66/66
f 71/60/60 104/11/11 79/70/70
f 72/62/62 65/61/61 73/72/72 80/73/73
f 65/61/61 66/63/63 74/69/69 73/72/72
f 77/66/66 78/71/71 86/74/74 85/75/75
f 79/70/70 104/11/11 87/76/76
f 80/73/73 73/72/72 81/77/77 88/78/78
f 73/72/72 74/69/69 82/79/79 81/77/77
f 76/67/67 77/66/66 85/75/75 84/80/80
f 74/69/69 75/68/68 83/81/81 82/79/79
f 78/71/71 79/70/70 87/76/76 86/74/74
f 75/68/68 76/67/67 84/80/80 83/81/81
f 82/79/79 83/81/81 91/82/82 90/83/83
f 86/74/74 87/76/76 95/84/84 94/85/85
f 83/81/81 84/80/80 92/86/86 91/82/82
f 85/75/75 86/74/74 94/85/85 93/87/87
f 87/76/76 104/11/11 95/84/84
f 88/78/78 81/77/77 89/88/88 96/89/89
f 81/77/77 82/79/79 90/83/83 89/88/88
f 84/80/80 85/75/75 93/87/87 92/86/86
f 95/84/84 104/11/11 103/90/90
f 96/89/89 89/88/88 97/91/91 105/92/92
f 89/88/88 90/83/83 98/93/93 97/91/91
f 92/86/86 93/87/87 101/94/94 100/95/95
f 90/83/83 91/82/82 99/96/96 98/93/93
f 94/85/85 95/84/84 103/90/90 102/97/97
f 91/82/82 92/86/86 100/95/95 99/96/96
f 93/87/87 94/85/85 102/97/97 101/94/94
f 98/93/93 99/96/96 108/98/98 107/99/99
f 102/97/97 103/90/90 112/100/100 111/101/101
f 99/96/96 100/95/95 109/102/102 108/98/98
f 101/94/94 102/97/97 111/101/101 110/103/103
f 103/90/90 104/11/11 112/100/100
f 105/92/92 97/91/91 106/104/104 113/105/105
f 97/91/91 98/93/93 107/99/99 106/104/104
f 100/95/95 101/94/94 110/103/103 109/102/102
f 112/100/100 104/11/11 120/106/106
f 113/105/105 106/104/104 114/107/107 121/108/108
f 106/104/104 107/99/99 115/109/109 114/107/107
f 109/102/102 110/103/103 118/110/110 117/111/111
f 107/99/99 108/98/98 116/112/112 115/109/109
f 111/101/101 112/100/100 120/106/106 119/113/113
f 108/98/98 109/102/102 117/111/111 116/112/112
f 110/103/103 111/101/101 119/113/113 118/110/110
f 119/113/113 120/106/106 128/114/114 127/115/115
f 116/112/112 117/111/111 125/116/116 124/117/117
f 118/110/110 119/113/113 127/115/115 126/118/118
f 120/106/106 104/11/11 128/114/114
f 121/108/108 114/107/107 122/119/119 129/120/120
f 114/107/107 115/109/109 123/121/121 122/119/119
f 117/111/111 118/110/110 126/118/118 125/116/116
f 115/109/109 116/112/112 124/117/117 123/121/121
f 129/120/120 122/119/119 130/122/122 137/123/123
f 122/119/119 123/121/121 131/124/124 130/122/122
f 125/116/116 126/118/118 134/125/125 133/126/126
f 123/121/121 124/117/117 132/127/127 131/124/124
f 127/115/115 128/114/114 136/128/128 135/129/129
f 124/117/117 125/116/116 133/126/126 132/127/127
f 126/118/118 127/115/115 135/129/129 134/125/125
f 128/114/114 104/11/11 136/128/128
f 135/129/129 136/128/128 144/130/130 143/131/131
f 132/127/127 133/126/126 141/132/132 140/133/133
f 134/125/125 135/129/129 143/131/131 142/134/134
f 136/128/128 104/11/11 144/130/130
f 137/123/123 130/122/122 138/135/135 145/136/136
f 130/122/122 131/124/124 139/137/137 138/135/135
f 133/126/126 134/125/125 142/134/134 141/132/132
f 131/124/124 132/127/127 140/133/133 139/137/137
f 153/138/138 2/139/138 1/140/138
f 153/138/138 3/141/138 2/139/138
f 152/142/138 3/141/138 153/138/138
f 152/142/138 4/143/138 3/141/138
f 151/144/138 4/143/138 152/142/138
f 151/144/138 5/145/138 4/143/138
f 150/146/138 5/145/138 151/144/138
f 150/146/138 6/147/138 5/145/138
f 149/148/138 6/147/138 150/146/138
f 149/148/138 7/149/138 6/147/138
f 147/150/138 7/149/138 149/148/138
f 146/151/138 7/149/138 147/150/138
f 146/151/138 8/152/138 7/149/138
f 145/136/136 8/152/138 146/151/138
f 145/136/136 16/12/12 8/152/138
f 137/123/123 16/12/12 145/136/136
f 137/123/123 24/15/15 16/12/12
f 129/120/120 24/15/15 137/123/123
f 129/120/120 32/20/20 24/15/15
f 121/108/108 32/20/20 129/120/120
f 121/108/108 40/32/32 32/20/20
f 113/105/105 40/32/32 121/108/108
f 113/105/105 48/35/35 40/32/32
f 105/92/92 48/35/35 113/105/105
f 105/92/92 56/48/48 48/35/35
f 96/89/89 56/48/48 105/92/92
f 96/89/89 64/57/57 56/48/48
f 88/78/78 64/57/57 96/89/89
f 88/78/78 72/62/62 64/57/57
f 80/73/73 72/62/62 88/78/78
